<svg xmlns="http://www.w3.org/2000/svg" width="1100" height="620" viewBox="0 0 1100 620" role="img" aria-label="Chrome Dumbbell Manufacturer Packaging Visualization">
  <defs><marker id="arrow" markerWidth="10" markerHeight="10" refX="8" refY="3" orient="auto" markerUnits="strokeWidth"><path d="M0,0 L0,6 L9,3 z" fill="#64748b"/></marker></defs>
  <rect width="1100" height="620" fill="#f8fafc"/>
  <rect x="44" y="44" width="1012" height="532" rx="28" fill="#ffffff" stroke="#e2e8f0"/>
  <text x="70" y="88" fill="#0f172a" font-size="34" font-weight="700" font-family="Arial">Chrome Dumbbell Manufacturer Packaging Visualization</text>
  <text x="70" y="515" fill="#475569" font-size="22" font-family="Arial">Synthetic visual for buyer education. Not real factory, QC, shipment, certification, or customer evidence.</text>
  <g><rect x="70" y="115" width="130" height="110" rx="12" fill="#fff" stroke="#475569" stroke-width="3"/><circle cx="135" cy="148" r="17" fill="#475569"/><text x="135" y="153" text-anchor="middle" fill="#fff" font-size="18" font-family="Arial">1</text><text x="135" y="188" text-anchor="middle" fill="#0f172a" font-size="17" font-family="Arial">Protection</text></g><path d="M190 170 H240" stroke="#64748b" stroke-width="4" marker-end="url(#arrow)"/>
<g><rect x="260" y="115" width="130" height="110" rx="12" fill="#fff" stroke="#475569" stroke-width="3"/><circle cx="325" cy="148" r="17" fill="#475569"/><text x="325" y="153" text-anchor="middle" fill="#fff" font-size="18" font-family="Arial">2</text><text x="325" y="188" text-anchor="middle" fill="#0f172a" font-size="17" font-family="Arial">Label plan</text></g><path d="M380 170 H430" stroke="#64748b" stroke-width="4" marker-end="url(#arrow)"/>
<g><rect x="450" y="115" width="130" height="110" rx="12" fill="#fff" stroke="#475569" stroke-width="3"/><circle cx="515" cy="148" r="17" fill="#475569"/><text x="515" y="153" text-anchor="middle" fill="#fff" font-size="18" font-family="Arial">3</text><text x="515" y="188" text-anchor="middle" fill="#0f172a" font-size="17" font-family="Arial">Carton</text></g><path d="M570 170 H620" stroke="#64748b" stroke-width="4" marker-end="url(#arrow)"/>
<g><rect x="640" y="115" width="130" height="110" rx="12" fill="#fff" stroke="#475569" stroke-width="3"/><circle cx="705" cy="148" r="17" fill="#475569"/><text x="705" y="153" text-anchor="middle" fill="#fff" font-size="18" font-family="Arial">4</text><text x="705" y="188" text-anchor="middle" fill="#0f172a" font-size="17" font-family="Arial">Pallet</text></g><path d="M760 170 H810" stroke="#64748b" stroke-width="4" marker-end="url(#arrow)"/>
<g><rect x="830" y="115" width="130" height="110" rx="12" fill="#fff" stroke="#475569" stroke-width="3"/><circle cx="895" cy="148" r="17" fill="#475569"/><text x="895" y="153" text-anchor="middle" fill="#fff" font-size="18" font-family="Arial">5</text><text x="895" y="188" text-anchor="middle" fill="#0f172a" font-size="17" font-family="Arial">Export prep</text></g>
</svg>